<?xml version="1.0" standalone="no"?>
<!DOCTYPE svg PUBLIC "-//W3C//DTD SVG 20010904//EN"
 "http://www.w3.org/TR/2001/REC-SVG-20010904/DTD/svg10.dtd">
<svg version="1.0" xmlns="http://www.w3.org/2000/svg"
 width="1024.000000pt" height="1024.000000pt" viewBox="0 0 1024.000000 1024.000000"
 preserveAspectRatio="xMidYMid meet">

<g transform="translate(0.000000,1024.000000) scale(0.100000,-0.100000)"
fill="#003366" stroke="none">
<path d="M5118 8226 c-53 -19 -83 -40 -112 -79 -76 -100 -40 -266 68 -307 25
-9 28 -14 22 -41 -3 -18 -6 -89 -6 -160 l0 -129 -36 -15 -36 -15 -103 96 c-57
53 -117 106 -134 117 -20 14 -29 27 -25 37 14 34 16 100 4 135 -16 47 -66 104
-107 121 -119 50 -269 -33 -281 -156 -13 -133 115 -254 231 -218 l36 11 116
-104 c64 -57 125 -111 135 -119 13 -10 17 -23 14 -40 l-5 -25 -257 2 -257 2
-7 29 c-9 34 -66 88 -114 108 -43 18 -115 18 -158 0 -90 -38 -148 -124 -148
-221 0 -94 45 -166 132 -211 43 -22 133 -23 175 -2 34 18 83 69 106 111 l15
28 247 4 247 4 6 -25 c6 -22 -8 -40 -107 -143 l-114 -117 -37 18 c-48 23 -82
23 -135 -3 -133 -65 -163 -242 -57 -341 39 -36 74 -48 143 -48 46 0 66 6 102
29 86 54 112 117 89 215 -12 53 -5 66 35 66 14 0 25 13 38 45 14 32 28 49 55
62 20 10 42 29 49 43 7 14 16 25 20 25 4 0 34 -11 65 -25 l58 -25 1 -450 c0
-247 3 -505 5 -573 l5 -123 -148 136 c-138 128 -253 214 -353 265 -24 12 -116
64 -204 114 -89 51 -201 114 -251 141 -113 60 -369 209 -500 290 -55 34 -131
81 -170 104 -38 23 -88 55 -110 71 -58 43 -76 37 -91 -30 -7 -30 -13 -68 -14
-85 0 -35 19 -48 141 -100 42 -17 116 -57 165 -87 88 -54 703 -405 879 -501
281 -154 477 -285 613 -411 61 -56 58 -71 -5 -29 -32 22 -155 91 -273 153
-118 62 -258 135 -310 163 -52 27 -165 89 -250 137 -85 48 -237 132 -338 186
-100 54 -253 141 -340 192 -158 95 -312 177 -367 198 -37 14 -59 4 -80 -36
-27 -52 19 -101 161 -169 49 -24 123 -63 164 -86 213 -119 359 -200 490 -270
208 -112 247 -133 320 -175 36 -21 198 -105 360 -187 162 -82 320 -164 350
-181 124 -70 399 -71 518 -1 22 13 83 49 134 80 51 31 122 71 158 88 35 18 69
36 75 40 5 5 84 49 175 98 91 49 257 143 370 208 237 137 377 216 580 327 80
44 184 102 232 130 l86 50 -15 35 c-19 46 -43 83 -53 83 -5 0 -35 -15 -67 -34
-114 -66 -411 -234 -558 -316 -82 -46 -186 -104 -230 -130 -77 -46 -323 -187
-605 -350 -74 -42 -202 -114 -285 -159 -82 -45 -161 -89 -174 -99 -23 -16 -24
-16 -13 4 23 44 246 228 363 300 249 154 515 310 1069 625 41 23 123 70 182
103 58 34 120 69 137 78 30 16 31 20 31 82 0 75 -6 96 -28 96 -8 0 -108 -56
-221 -124 -113 -68 -291 -173 -396 -233 -572 -331 -758 -443 -857 -519 -35
-27 -121 -107 -193 -179 l-130 -130 1 110 c0 61 1 326 2 590 l2 480 46 25 47
24 31 -36 c17 -19 67 -65 110 -102 l80 -65 -3 -54 c-4 -87 45 -173 121 -213
45 -23 119 -18 179 14 127 66 157 224 61 325 -60 63 -165 87 -233 52 -35 -18
-34 -19 -119 56 -36 32 -80 70 -99 86 l-34 30 17 44 17 44 234 0 234 0 17 -38
c21 -45 93 -114 129 -123 15 -4 58 -4 97 -2 61 5 73 9 103 38 18 17 47 63 65
102 28 61 32 77 27 125 -13 122 -98 197 -226 197 -95 1 -182 -51 -196 -115 -8
-36 -25 -38 -291 -41 l-200 -3 -15 30 c-14 29 -13 31 18 65 18 19 58 63 89 98
32 34 73 72 91 83 32 20 35 20 67 5 94 -44 190 9 246 137 33 75 14 144 -59
210 -105 95 -241 66 -308 -66 -21 -43 -24 -59 -19 -107 l7 -56 -126 -120 c-70
-65 -127 -120 -129 -122 -7 -6 -61 29 -68 45 -3 10 -7 79 -7 154 -1 128 0 137
22 156 12 11 33 26 45 33 14 7 37 39 54 77 29 62 30 67 19 118 -29 127 -145
201 -253 161z m103 -156 c27 -15 26 -73 -2 -101 -22 -22 -67 -21 -96 2 -16 14
-17 81 -1 97 15 15 72 16 99 2z m-602 -236 c12 -15 21 -33 21 -40 0 -19 -37
-51 -68 -59 -47 -12 -79 54 -52 106 16 30 73 26 99 -7z m1193 9 c25 -22 22
-62 -6 -97 -19 -23 -29 -27 -50 -22 -28 7 -66 58 -66 90 0 42 85 63 122 29z
m-567 -506 c42 -42 51 -77 36 -129 -35 -116 -169 -129 -228 -23 -33 58 -29 85
15 127 74 71 124 78 177 25z m-1016 -13 c55 -46 37 -135 -30 -149 -25 -6 -36
-2 -60 21 -38 37 -40 94 -4 129 31 32 56 31 94 -1z m1969 -10 c32 -36 29 -84
-7 -123 -37 -40 -65 -39 -107 3 -56 56 -44 117 26 145 33 13 60 5 88 -25z
m-409 -529 c46 -23 54 -66 20 -109 -25 -32 -64 -34 -96 -4 -46 43 -23 109 45
127 2 1 16 -6 31 -14z m-1171 -21 c14 -10 22 -24 22 -44 0 -47 -68 -87 -107
-62 -20 13 -33 60 -23 86 17 46 55 53 108 20z"/>
<path d="M2817 6655 c-9 -9 -17 -31 -18 -48 0 -18 0 -734 1 -1592 1 -1304 4
-1563 15 -1581 20 -30 178 -115 191 -102 1 2 -10 44 -24 93 l-26 90 -3 1449
c-3 1379 -2 1448 15 1434 24 -22 239 -146 340 -197 45 -23 112 -59 148 -82 36
-22 177 -96 312 -165 390 -197 555 -283 565 -293 6 -6 9 -541 9 -1433 0 -783
3 -1474 6 -1537 l7 -114 60 -33 c33 -19 62 -34 65 -34 3 0 3 30 2 67 -3 53 0
69 12 79 14 10 15 13 1 24 -13 11 -15 181 -15 1466 l0 1455 69 -36 c45 -24 71
-43 75 -58 8 -28 8 -2995 0 -3033 -5 -24 0 -33 24 -51 50 -37 243 -129 332
-159 76 -25 99 -28 220 -28 113 -1 147 3 210 22 99 31 527 256 820 432 112 67
491 282 1050 596 107 60 209 124 227 142 l33 33 -2 1586 -3 1586 -21 13 c-19
13 -25 11 -60 -13 -41 -28 -131 -79 -304 -170 -58 -31 -161 -88 -230 -128 -69
-40 -201 -115 -295 -167 -93 -53 -262 -147 -375 -210 -113 -64 -275 -153 -360
-198 -85 -45 -213 -114 -284 -153 -174 -96 -225 -109 -406 -111 -123 -1 -157
3 -223 22 -84 24 -165 62 -253 118 -30 19 -147 79 -258 133 -111 54 -263 132
-337 173 -74 41 -206 112 -294 158 -88 46 -191 102 -230 125 -38 23 -182 102
-320 176 -221 118 -257 141 -310 196 -49 50 -69 63 -101 69 -31 4 -45 2 -57
-11z m4568 -1699 l0 -1444 -55 -27 c-30 -15 -106 -56 -169 -92 -62 -36 -157
-89 -210 -117 -147 -80 -378 -208 -566 -316 -93 -54 -204 -117 -245 -141 -41
-23 -104 -59 -140 -80 -88 -51 -198 -104 -204 -98 -3 2 -6 657 -8 1454 -3
1443 -3 1450 17 1454 18 3 100 46 325 171 47 26 139 76 205 110 66 35 218 118
337 186 119 68 308 171 420 230 112 59 221 117 243 130 22 13 42 23 45 24 3 0
5 -650 5 -1444z m-2440 408 c48 -14 97 -18 240 -18 l180 -1 120 43 c66 23 127
45 135 48 13 4 15 -27 15 -248 l-1 -253 -60 -62 c-33 -35 -57 -63 -54 -63 3 0
1 -4 -5 -8 -5 -4 -17 -20 -25 -37 -9 -16 -21 -31 -28 -31 -7 -1 -13 -3 -14 -4
-9 -9 -54 -6 -60 4 -5 6 -8 7 -8 1 0 -11 -42 -11 -196 0 -133 8 -283 70 -370
151 l-34 31 0 262 0 261 53 -29 c28 -16 79 -37 112 -47z m-23 -711 c138 -69
279 -89 400 -57 76 19 187 68 257 111 29 19 54 33 56 31 1 -2 5 -23 8 -47 5
-41 3 -48 -27 -75 -56 -53 -155 -104 -233 -122 -56 -12 -106 -15 -206 -11
-154 5 -199 17 -317 85 l-85 49 -3 73 -3 73 44 -39 c24 -22 73 -53 109 -71z
m128 -310 c41 -11 103 -17 170 -18 117 0 198 20 327 81 39 19 76 34 81 34 7 0
9 -147 5 -457 -4 -322 -2 -470 5 -498 10 -35 9 -42 -11 -63 -39 -42 -163 -119
-228 -142 -91 -32 -247 -39 -337 -15 -92 24 -172 68 -234 129 l-53 51 3 507 3
507 102 -49 c56 -28 131 -58 167 -67z m-127 -1179 c192 -97 438 -82 641 41 32
19 62 35 67 35 5 0 7 -97 3 -227 -3 -126 -2 -281 3 -345 l8 -117 -53 -35 c-60
-39 -185 -91 -264 -107 -75 -16 -249 -6 -328 20 -36 11 -101 42 -144 68 l-79
48 2 344 c1 190 4 348 7 353 3 5 19 -3 36 -17 17 -15 62 -42 101 -61z"/>
<path d="M6685 5394 c-66 -36 -126 -71 -132 -76 -14 -11 -18 -32 -5 -24 4 3
16 -11 27 -30 10 -19 24 -34 32 -34 18 0 103 43 181 92 61 39 62 41 56 77 -8
53 -12 61 -26 61 -7 0 -67 -30 -133 -66z"/>
<path d="M6951 5103 l4 -192 -43 -28 c-46 -31 -87 -84 -97 -126 -6 -20 -37
-45 -140 -107 -130 -78 -155 -90 -155 -71 0 5 -13 14 -28 19 -26 9 -30 16 -35
63 -4 30 -7 109 -7 177 0 137 2 133 -75 135 l-46 2 2 -183 1 -182 -47 -42
c-56 -49 -84 -105 -85 -166 0 -61 21 -102 76 -150 l49 -42 5 -197 5 -198 -42
-42 c-52 -52 -73 -91 -79 -151 -14 -130 125 -228 227 -159 69 46 139 166 139
238 0 30 -49 96 -93 125 l-28 19 3 190 3 190 39 40 c43 44 75 106 76 147 0 35
9 58 24 58 10 0 171 86 222 119 18 12 23 11 45 -10 13 -13 37 -33 52 -45 l28
-20 4 -186 3 -186 -43 -30 c-33 -23 -48 -43 -66 -91 -24 -61 -24 -62 -108
-103 -91 -45 -161 -103 -161 -134 0 -11 7 -30 15 -42 l16 -22 62 31 c34 18 88
50 120 72 l58 41 26 -32 c69 -89 193 -85 277 8 81 90 66 229 -29 278 l-36 18
-5 195 -6 194 46 43 c56 54 80 114 74 183 -6 57 -28 92 -82 129 l-37 26 -3
119 c-2 66 -4 152 -5 192 l-1 71 -61 4 -61 3 3 -192z"/>
<path d="M3140 5944 c0 -8 -4 -13 -9 -10 -16 10 -20 -38 -5 -62 20 -30 73 -62
102 -62 21 0 23 3 17 33 -4 17 -15 39 -25 47 -10 8 -25 27 -35 43 -19 29 -45
36 -45 11z"/>
<path d="M3735 5809 c-47 -42 -65 -78 -65 -134 0 -57 22 -110 62 -152 l31 -32
-2 -1293 c-2 -1238 -1 -1294 16 -1310 25 -21 72 -44 108 -52 l30 -7 -3 71 c-3
48 0 70 8 70 7 0 5 7 -5 16 -14 15 -16 129 -14 1265 2 1188 3 1249 20 1249 51
0 102 136 80 211 -14 46 -53 94 -92 114 -15 8 -53 15 -83 15 -48 0 -60 -4 -91
-31z m144 -115 c38 -48 22 -94 -30 -94 -49 0 -78 70 -43 104 23 23 50 19 73
-10z"/>
<path d="M4104 5385 c-20 -9 -34 -24 -38 -41 -4 -14 -7 -604 -8 -1310 l-1
-1283 31 -26 c26 -22 90 -55 107 -55 3 0 5 34 5 75 l0 76 31 -16 c17 -9 33
-15 35 -13 2 2 -12 12 -31 23 l-35 18 0 1268 c0 697 -3 1274 -6 1283 -7 19
-47 20 -90 1z"/>
<path d="M3526 5341 c-3 -4 -13 -35 -21 -67 -25 -95 -35 -414 -35 -1236 -1
-875 0 -945 11 -976 5 -14 29 -32 61 -47 62 -29 66 -25 67 63 1 53 13 66 39
40 6 -6 15 -9 18 -5 4 3 -10 14 -30 23 l-36 18 -1 325 c0 179 0 671 1 1092 1
704 0 767 -15 773 -24 9 -53 8 -59 -3z"/>
<path d="M3160 5218 c-33 -17 -54 -38 -77 -78 -18 -30 -33 -63 -33 -75 0 -51
24 -102 65 -141 l44 -40 -4 -821 c-5 -932 -15 -832 88 -878 32 -14 59 -25 61
-25 9 0 -4 151 -15 171 -9 17 -11 205 -7 790 l4 766 36 44 c50 62 68 102 68
151 0 58 -35 109 -94 137 -58 27 -81 26 -136 -1z m104 -110 c39 -55 10 -113
-52 -106 -22 2 -29 10 -36 40 -17 70 50 120 88 66z"/>
</g>
</svg>
